<?xml version="1.0" standalone="no"?>
<!DOCTYPE svg PUBLIC "-//W3C//DTD SVG 20010904//EN"
 "http://www.w3.org/TR/2001/REC-SVG-20010904/DTD/svg10.dtd">
<svg version="1.0" xmlns="http://www.w3.org/2000/svg"
 width="400.000000pt" height="400.000000pt" viewBox="0 0 400.000000 400.000000"
 preserveAspectRatio="xMidYMid meet">
<metadata>
Created by potrace 1.16, written by Peter Selinger 2001-2019
</metadata>
<g transform="translate(0.000000,400.000000) scale(0.100000,-0.100000)"
fill="#000000" stroke="none">
<path d="M1117 2862 l-866 -877 752 -753 c414 -414 805 -803 870 -864 l117
-110 258 248 c141 137 536 527 876 867 l619 619 -764 765 c-420 420 -816 813
-880 873 l-116 109 -866 -877z m2492 -789 c-12 -15 -12 -16 1 -8 8 4 12 5 8 0
-4 -4 -3 -14 3 -22 6 -7 8 -13 4 -13 -4 0 -370 362 -813 804 -444 443 -810
805 -814 805 -5 1 -309 -297 -676 -661 -367 -365 -740 -734 -828 -821 l-161
-157 829 -828 c456 -455 831 -827 833 -827 2 0 328 323 724 718 396 395 725
716 730 712 6 -3 8 0 5 8 -6 17 69 80 81 69 5 -4 5 -2 2 4 -8 14 16 37 27 27
4 -4 4 1 0 12 -6 15 -4 17 10 12 9 -4 15 -3 12 2 -3 4 10 23 29 41 39 38 39
38 23 77 -14 36 -18 53 -10 53 10 0 72 -74 72 -86 0 -15 -190 -210 -202 -206
-5 1 -7 -1 -4 -6 2 -4 -334 -346 -747 -760 l-752 -752 -795 796 c-437 438
-788 793 -780 789 9 -5 12 -4 7 1 -5 5 -10 7 -12 4 -2 -3 -22 13 -44 34 -29
29 -38 43 -30 52 7 9 5 11 -8 10 -10 0 -17 5 -15 12 1 8 -2 11 -7 8 -5 -3 -14
0 -20 8 -9 11 -5 19 19 40 18 14 29 26 25 26 -3 0 6 11 22 24 20 17 30 21 36
13 6 -8 7 -5 3 6 -5 14 175 199 796 823 l802 805 815 -815 c739 -740 813 -817
800 -833z m-1668 937 c58 -11 158 -56 199 -89 19 -15 4 -12 -62 15 -191 77
-313 67 -411 -34 -42 -43 -77 -130 -77 -190 0 -122 75 -209 300 -347 130 -80
193 -129 222 -173 36 -54 41 -86 23 -147 -27 -96 -117 -145 -263 -145 -109 0
-191 17 -269 56 -47 23 -60 27 -43 13 38 -33 131 -76 233 -111 109 -36 269
-49 355 -28 159 38 227 201 146 351 -40 73 -111 126 -295 219 -176 90 -239
139 -265 205 -39 104 14 231 121 288 31 17 57 22 120 22 72 0 88 -4 160 -38
44 -21 81 -33 83 -28 6 19 40 56 46 50 3 -3 0 -22 -6 -42 -8 -26 -8 -48 -1
-74 11 -41 10 -235 -1 -269 -6 -19 -43 -44 -65 -44 -5 0 -12 15 -16 33 -7 31
-8 31 -14 8 -4 -14 -12 -26 -18 -28 -14 -5 -43 47 -43 78 0 12 -16 37 -35 56
-63 61 -68 86 -29 132 29 35 27 37 -20 17 -69 -29 -85 -100 -42 -192 36 -77
78 -117 202 -194 126 -79 174 -128 204 -208 24 -63 28 -184 10 -253 -16 -59
-79 -120 -153 -147 -126 -47 -350 -48 -558 -2 -113 25 -117 27 -123 58 -17 88
-27 155 -22 160 3 3 1 11 -6 19 -7 9 4 7 35 -6 97 -42 291 -51 391 -19 21 6
51 24 67 39 52 48 33 143 -43 218 -18 18 -97 71 -175 117 -203 121 -285 215
-300 343 -12 105 57 215 170 271 95 46 172 58 268 40z m379 -1309 c7 -15 6
-24 -6 -36 -15 -14 -53 -16 -348 -14 -182 1 -339 6 -348 11 -18 9 -24 39 -11
51 3 4 163 7 354 7 334 0 349 -1 359 -19z m-54 -89 c6 -4 14 -17 18 -29 7 -22
4 -25 -43 -61 -33 -25 -23 -60 34 -121 25 -27 45 -53 45 -59 0 -6 11 -19 25
-28 27 -18 34 -61 13 -82 -16 -16 -759 -17 -789 -2 -25 14 -25 64 0 82 10 7
25 27 34 43 8 17 30 44 47 60 55 51 60 104 11 120 -23 7 -33 42 -20 67 9 17
29 18 312 18 166 0 307 -4 313 -8z"/>
</g>
</svg>
